<?xml version="1.0" encoding="UTF-8"?> <svg xmlns="http://www.w3.org/2000/svg" width="10.25" height="10" viewBox="0 0 131.25 150"><path id="book" d="M131.25,105.469V7.031A7.014,7.014,0,0,0,124.219,0H28.125A28.132,28.132,0,0,0,0,28.125v93.75A28.132,28.132,0,0,0,28.125,150h96.094a7.014,7.014,0,0,0,7.031-7.031v-4.687a7.086,7.086,0,0,0-2.607-5.479c-1.23-4.512-1.23-17.373,0-21.885a6.982,6.982,0,0,0,2.607-5.449ZM37.5,39.258A1.763,1.763,0,0,1,39.258,37.5h62.109a1.763,1.763,0,0,1,1.758,1.758v5.859a1.763,1.763,0,0,1-1.758,1.758H39.258A1.763,1.763,0,0,1,37.5,45.117Zm0,18.75a1.763,1.763,0,0,1,1.758-1.758h62.109a1.763,1.763,0,0,1,1.758,1.758v5.859a1.763,1.763,0,0,1-1.758,1.758H39.258A1.763,1.763,0,0,1,37.5,63.867Zm74.238,73.242H28.125a9.375,9.375,0,0,1,0-18.75h83.613A105.472,105.472,0,0,0,111.738,131.25Z" fill="#63c29a"></path></svg> 