<?xml version="1.0" encoding="UTF-8"?> <svg xmlns="http://www.w3.org/2000/svg" width="140.984" height="60" viewBox="0 0 172.984 150"><path id="list-ol" d="M21.947,49.046l5.913-6.808a6.73,6.73,0,0,0,1.713-4.794V36.326c0-2.483-1.3-3.835-3.831-3.835H6.484a2.7,2.7,0,0,0-2.7,2.7V40.6a2.7,2.7,0,0,0,2.7,2.7H14.2a53.184,53.184,0,0,0-3.716,4.159l-1.9,2.365c-1.351,1.713-1.774,3.423-.946,5.027l.355.652c1.014,1.946,2.125,2.662,4.139,2.662h1.6c3.49,0,5.385.824,5.385,3.071,0,1.595-1.419,2.777-4.852,2.777a14.035,14.035,0,0,1-5.227-1.054c-2.193-1.311-3.966-1.182-5.271,1.054L1.879,67.162C.622,69.233.8,71.122,2.767,72.548a24.26,24.26,0,0,0,12.5,3.189c11.541,0,16.386-7.686,16.386-14.906C31.644,55.972,28.573,50.776,21.947,49.046ZM167.579,96.865H59.463a5.406,5.406,0,0,0-5.406,5.406v10.812a5.406,5.406,0,0,0,5.406,5.406H167.579a5.406,5.406,0,0,0,5.406-5.406V102.27A5.406,5.406,0,0,0,167.579,96.865Zm0-54.058H59.463a5.406,5.406,0,0,0-5.406,5.406V59.024a5.406,5.406,0,0,0,5.406,5.406H167.579a5.406,5.406,0,0,0,5.406-5.406V48.213A5.406,5.406,0,0,0,167.579,42.807Zm0,108.115H59.463a5.406,5.406,0,0,0-5.406,5.406V167.14a5.406,5.406,0,0,0,5.406,5.406H167.579a5.406,5.406,0,0,0,5.406-5.406V156.328A5.406,5.406,0,0,0,167.579,150.922ZM6.237,182.491H27.86a2.7,2.7,0,0,0,2.7-2.7v-5.406a2.7,2.7,0,0,0-2.7-2.7H22.454V141.948a2.7,2.7,0,0,0-2.7-2.7H11.643a2.7,2.7,0,0,0-2.412,1.493l-2.7,5.406a2.7,2.7,0,0,0,2.412,3.912h2.7v21.623H6.237a2.7,2.7,0,0,0-2.7,2.7v5.406A2.7,2.7,0,0,0,6.237,182.491ZM4.085,129.3H27.029a2.7,2.7,0,0,0,2.7-2.7v-5.406a2.7,2.7,0,0,0-2.7-2.7H13.96c1.112-3.477,16.332-6.311,16.332-19.069,0-9.818-8.447-13.366-15.025-13.366-7.217,0-11.42,3.379-13.67,6.335C.122,94.277.584,96.05,2.544,97.581l2.9,2.324c1.9,1.541,3.716.835,5.446-.824a4.541,4.541,0,0,1,3.2-1.3,2.878,2.878,0,0,1,3.135,2.956C17.231,105.038,0,108.119,0,124.093v1.351C0,127.948,1.716,129.3,4.085,129.3Z" transform="translate(0 -32.491)" fill="#63c29a"></path></svg> 