<?xml version="1.0" encoding="UTF-8"?> <svg xmlns="http://www.w3.org/2000/svg" width="641.977" height="434.453" viewBox="0 0 641.977 434.453"><g id="undraw_solution_mindset_34bi" transform="translate(0 0.031)"><circle id="Ellipse_1" data-name="Ellipse 1" cx="89.545" cy="89.545" r="89.545" transform="translate(0 249.125)" fill="#f2f2f2"></circle><path id="Path_1" data-name="Path 1" d="M304.633,491.385A189.2,189.2,0,1,1,438.416,435.97,189.2,189.2,0,0,1,304.633,491.385Zm0-376.954c-103.528,0-187.755,84.226-187.755,187.755S201.1,489.941,304.633,489.941s187.754-84.227,187.754-187.756S408.161,114.431,304.633,114.431Z" transform="translate(-106.768 -112.998)" fill="#2f2e41"></path><path id="Path_2" data-name="Path 2" d="M351.192,291.755l-.021.011-93.25,51.925L155.809,292.635l-1.76-.88,5.3-105.991L251.56,120.05l1.018.636,95.434,59.779Z" transform="translate(-54.756 -42.682)" fill="#63c29a"></path><path id="Path_3" data-name="Path 3" d="M352.141,351.969l-93.25,51.925L156.779,352.838l90.452-63.414Z" transform="translate(-55.726 -102.885)" opacity="0.3"></path><path id="Path_4" data-name="Path 4" d="M402.043,292.106,297.112,229.572l6.317-108.535,95.434,59.779Z" transform="translate(-105.607 -43.033)" opacity="0.1"></path><path id="Path_5" data-name="Path 5" d="M159.879,236.047l-.518-.733L252.6,169.5l98.5,61.754-.477.761-97.99-61.437Z" transform="translate(-56.644 -60.259)" fill="#f2f2f2"></path><path id="Path_6" data-name="Path 6" d="M157.083,293.468l-.5-.743,92.768-62.983.243.138,100.6,57.017-.443.781L249.39,230.8Z" transform="translate(-55.655 -81.672)" fill="#f2f2f2"></path><path id="Path_7" data-name="Path 7" d="M212.015,322.351l-.473-.763,93.495-57.933V152.594h.9V264.155Z" transform="translate(-75.192 -54.25)" fill="#f2f2f2"></path><path id="Path_8" data-name="Path 8" d="M268.946,352.173l-.477-.761,90.024-56.465V184.879h.9V295.444Z" transform="translate(-95.426 -65.725)" fill="#f2f2f2"></path><path id="Path_9" data-name="Path 9" d="M349.875,323.672,245.176,265.5l.015-.28L250.7,156.281l.9.046-5.5,108.66,104.21,57.9Z" transform="translate(-87.147 -55.56)" fill="#f2f2f2"></path><path id="Path_10" data-name="Path 10" d="M299.418,354.274,195.9,300.024l.016-.288,6.1-108.994.9.05-6.086,108.7,103.011,53.981Z" transform="translate(-69.63 -67.809)" fill="#f2f2f2"></path><circle id="Ellipse_2" data-name="Ellipse 2" cx="36.107" cy="36.107" r="36.107" transform="translate(278.022 5.044)" fill="#3f3d56"></circle><rect id="Rectangle_1" data-name="Rectangle 1" width="621.035" height="1.444" transform="translate(20.942 426.77)" fill="#2f2e41"></rect><path id="Path_11" data-name="Path 11" d="M986.137,472.229l8.253,22.607s-8.612,25.836,0,26.554,9.687-24.759,9.687-24.759l-4.665-27.272Z" transform="translate(-416.262 -239.675)" fill="#ffb9b9"></path><path id="Path_12" data-name="Path 12" d="M988.3,359.128l6.1,6.1v29.066s3.588,5.383,2.871,6.818-1.435,1.435-.718,2.512,1.435,1.794.718,2.512a2.691,2.691,0,0,0,0,3.229c.718.718,2.153,1.794,1.077,2.871s-2.512.359-1.077,4.306,3.947,5.024,3.229,6.459-.718,5.024-.718,5.024l-15.43,2.153-3.23-40.548Z" transform="translate(-414.481 -200.495)" fill="#d0cde1"></path><path id="Path_13" data-name="Path 13" d="M899.3,352.464l-17.942.717.718,7.535,15.789-2.871Z" transform="translate(-313.273 -125.293)" fill="#3f3d56"></path><path id="Path_14" data-name="Path 14" d="M831.453,187.953,829.3,209.484l21.889,3.229,1.615-12.38,1.615-12.38Z" transform="translate(-294.771 -66.818)" fill="#ffb9b9"></path><path id="Path_15" data-name="Path 15" d="M831.453,187.953,829.3,209.484l21.889,3.229,1.615-12.38,1.615-12.38Z" transform="translate(-294.771 -66.818)" opacity="0.1"></path><path id="Path_16" data-name="Path 16" d="M860.875,459.894l12.2,26.2s2.153,12.2,5.383,12.559,6.459-12.559,6.459-12.559l-4.306-6.818-5.024-19.377Z" transform="translate(-371.739 -236.311)" fill="#ffb9b9"></path><path id="Path_17" data-name="Path 17" d="M890.23,491.691,880.183,507.48s-9.688,150.352-8.253,149.275,6.1-1.435,7.894-4.306,12.918,0,12.918,0l6.459-6.818v-5.383c0-1.077,12.918-83.25,12.918-83.25v20.813s-3.947,76.432,2.512,75.715,19.736-5.024,19.736-5.024,19.018-142.816,13.277-148.2-8.253-17.583-8.253-17.583Z" transform="translate(-375.616 -244.425)" fill="#2f2e41"></path><circle id="Ellipse_3" data-name="Ellipse 3" cx="17.224" cy="17.224" r="17.224" transform="translate(531.479 93.684)" fill="#ffb9b9"></circle><path id="Path_18" data-name="Path 18" d="M878.644,338.852l-2.512-1.435s-11.124,7.536-14.712,24.4-6.1,21.171-6.1,21.171-3.589.718-1.077,3.229,2.512,2.153.359,3.588-3.588-1.435-2.153,1.435,3.229,2.153,1.794,3.947-3.947,1.794-2.512,3.23-1.435,4.665.359,6.1,2.512,1.794,2.512,4.306a12.706,12.706,0,0,0,.718,4.306h18.66s-3.588-6.818-2.512-8.253,1.435-2.871.718-3.588-2.871.718-.718-1.077,2.871-.718,2.153-2.871-2.153-1.076-.718-2.153,2.512-.718,1.794-1.794-2.153-1.076-.718-1.794,2.512,0,2.153-1.794-.718-1.076,0-1.794,8.253-25.118,8.253-25.836S878.644,338.852,878.644,338.852Z" transform="translate(-368.336 -192.777)" fill="#d0cde1"></path><path id="Path_19" data-name="Path 19" d="M773.688,339.659l-22.607,1.435,5.742,5.383,15.789.359Z" transform="translate(-266.968 -120.741)" fill="#3f3d56"></path><path id="Path_20" data-name="Path 20" d="M895.6,494.411l-4.665,8.612s13.995,1.794,19.018,3.588,17.942,4.306,17.942,4.306l3.23-12.559Z" transform="translate(-382.424 -248.58)" fill="#3f3d56"></path><path id="Path_21" data-name="Path 21" d="M859.641,386.152l3.947,11.842,15.789-3.23-1.794-11.124Z" transform="translate(-305.555 -136.374)" fill="#3f3d56"></path><path id="Path_22" data-name="Path 22" d="M942.573,315.915s-1.077-.718-3.588.718-10.765,2.153-14.712-2.153-6.818-7.895-7.894-7.177-1.794,8.971-1.794,8.971L911,319.144l-21.171,7.536,1.794,48.443,3.229,11.124s-2.512,8.612.718,13.636-1.794,6.818-1.794,6.818-1.077,1.435-.359,5.024-.718,16.865-.718,16.865,30.5,13.636,62.437,1.794l-3.588-13.636-1.794-30.5s1.794-5.024,1.435-7.177,10.765-32.3,10.765-32.3-1.794-15.071-11.124-18.3-10.765-6.459-10.765-6.459S944.368,317.35,942.573,315.915Z" transform="translate(-382.029 -182.041)" fill="#d0cde1"></path><path id="Path_23" data-name="Path 23" d="M925.689,274.33a7.9,7.9,0,0,1-1.1-5.572,16.886,16.886,0,0,0,.481-5.022,49.706,49.706,0,0,1,2.889-7.292c1.445-2.614.757-3.715,5.3-4.54s2.683-6.742,14.653-.344a3.51,3.51,0,0,0,3.646,1.376c2.477-.482,3.371,2.958,3.371,2.958s1.651-.963,2.27.413,5.034-.826,5.034,8.461-5.024,17.583-5.024,17.583.368-15.622-7.818-17.2-16.992-6.191-19.125-.275A45.1,45.1,0,0,1,925.689,274.33Z" transform="translate(-394.329 -161.215)" fill="#2f2e41"></path><ellipse id="Ellipse_4" data-name="Ellipse 4" cx="1.615" cy="2.153" rx="1.615" ry="2.153" transform="translate(561.442 112.523)" fill="#ffb9b9"></ellipse><path id="Path_24" data-name="Path 24" d="M952.9,737.951l2.524,7.571s0,7.571,2.524,11.356,5.047,11.987-5.047,12.618-14.511-3.154-14.511-3.154,1.893-5.047,0-6.94,0-5.678,0-5.678l1.893-15.142Z" transform="translate(-398.991 -335.146)" fill="#2f2e41"></path><path id="Path_25" data-name="Path 25" d="M881.065,737.951l-2.523,7.571s0,7.571-2.524,11.356-5.047,11.987,5.047,12.618,14.511-3.155,14.511-3.155-1.893-5.047,0-6.94,0-5.678,0-5.678l-1.893-15.142Z" transform="translate(-376.319 -335.146)" fill="#2f2e41"></path></g></svg> 